<svg width="12" height="13" viewBox="0 0 12 13" fill="none" xmlns="http://www.w3.org/2000/svg">
<path fill-rule="evenodd" clip-rule="evenodd" d="M3 0.5C2.65901 0.5 2.33198 0.635459 2.09086 0.876577C1.84975 1.11769 1.71429 1.44473 1.71429 1.78571V7.57101H4.9286C5.87537 7.57101 6.64288 8.33852 6.64288 9.28529C6.64288 10.2321 5.87537 10.9996 4.9286 10.9996H1.71429V11.2143C1.71429 11.5553 1.84975 11.8823 2.09086 12.1235C2.33198 12.3646 2.659 12.5 3 12.5H10.7143C11.0553 12.5 11.3823 12.3646 11.6235 12.1235C11.8646 11.8823 12 11.5553 12 11.2143V4.35714C12 4.24348 11.9548 4.13447 11.8745 4.0541L8.4459 0.625526C8.36553 0.545153 8.25652 0.5 8.14286 0.5H3ZM5.57143 9.28529C5.57143 8.93026 5.28361 8.64244 4.92857 8.64244H0.642857C0.287817 8.64244 0 8.93026 0 9.28529C0 9.64031 0.287817 9.92814 0.642857 9.92814H4.92857C5.28361 9.92814 5.57143 9.64031 5.57143 9.28529Z" fill="#E5A01F"/>
</svg>
