<svg width="26" height="32" viewBox="0 0 26 32" fill="none" xmlns="http://www.w3.org/2000/svg">
<path fill-rule="evenodd" clip-rule="evenodd" d="M9.63556 0.439286C12.5357 -0.331326 15.6011 -0.0795109 18.3165 1.12738C19.1877 1.51458 19.5774 2.52884 19.1869 3.3928C18.7965 4.25675 17.7738 4.64324 16.9026 4.25602C14.9094 3.37012 12.6591 3.1853 10.5303 3.75098C8.08565 4.40055 6.00134 5.98657 4.73582 8.16015L4.73479 8.16195C4.27591 8.94792 3.93639 9.79597 3.72664 10.6787C3.50768 11.6002 2.57688 12.1712 1.64767 11.9541C0.718463 11.7369 0.142711 10.8138 0.361664 9.89231C0.648975 8.6832 1.11396 7.5216 1.7424 6.44498C3.46641 3.48438 6.30559 1.3241 9.63556 0.439286ZM23.6328 5.47449C23.0836 4.70015 22.0054 4.51401 21.2245 5.05873C20.4437 5.60345 20.2561 6.67277 20.8053 7.44711C21.9309 9.03418 22.5431 10.9346 22.5429 12.8926V19.1077C22.5429 20.3505 22.296 21.5811 21.8164 22.7293C21.3368 23.8774 20.6341 24.9208 19.7478 25.7997C18.8617 26.6785 17.8097 27.3754 16.6519 27.8511C15.4941 28.3267 14.2532 28.5715 13 28.5715C12.0453 28.5715 11.2714 29.339 11.2714 30.2858C11.2714 31.2325 12.0453 32 13 32C14.7072 32 16.3977 31.6665 17.9749 31.0185C19.5521 30.3708 20.9853 29.4211 22.1923 28.2239C23.3995 27.0268 24.3572 25.6056 25.0103 24.0413C25.6637 22.4772 26 20.8007 26 19.1077V12.8927C26.0002 10.2253 25.1664 7.6365 23.6328 5.47449ZM3.45714 15.3736C3.45714 14.4268 2.68323 13.6593 1.72857 13.6593C0.773893 13.6593 5.74461e-07 14.4268 5.74461e-07 15.3736V19.107C-0.000759996 21.6448 0.753726 24.1263 2.1689 26.2406C3.25179 27.8586 4.68466 29.2065 6.35445 30.1914C7.17495 30.6752 8.23572 30.408 8.72375 29.5943C9.21176 28.7806 8.94224 27.7285 8.12175 27.2447C6.89596 26.5217 5.84416 25.5323 5.04927 24.3446C4.01033 22.7924 3.4565 20.9706 3.45714 19.1076V15.3736ZM12.6491 9.80811C13.0747 9.77266 13.5045 9.80619 13.9212 9.90838C14.4921 10.0484 15.024 10.3137 15.4778 10.6847C15.9316 11.0557 16.2956 11.523 16.543 12.0521C16.7904 12.5813 16.9149 13.1587 16.9073 13.7419L16.9071 15.9997C16.9071 16.9464 17.681 17.7139 18.6357 17.7139C19.5904 17.7139 20.3642 16.9464 20.3642 15.9997V13.7744C20.3766 12.6821 20.1427 11.6009 19.6793 10.6099C19.2143 9.61524 18.53 8.73684 17.6771 8.03939C16.8241 7.34197 15.8242 6.84328 14.751 6.58011C13.9677 6.38802 13.1599 6.32501 12.3598 6.39163C11.4084 6.47085 10.702 7.29989 10.7819 8.24332C10.8618 9.18675 11.6977 9.88733 12.6491 9.80811ZM8.48882 9.94895C9.368 10.3179 9.7791 11.3238 9.40706 12.1957C9.19676 12.6886 9.08986 13.2187 9.09283 13.7538L9.0929 13.7633L9.09286 18.2619C9.08016 19.0512 9.31063 19.8255 9.75386 20.4812C10.1971 21.1369 10.8317 21.6427 11.5727 21.931C12.3138 22.2192 13.1259 22.2761 13.9004 22.094C14.675 21.912 15.375 21.4996 15.9067 20.9122C16.5445 20.2077 17.6374 20.1493 18.3477 20.7818C19.0581 21.4142 19.117 22.4981 18.4793 23.2025C17.477 24.3097 16.1576 25.087 14.6978 25.4301C13.2379 25.7732 11.7072 25.666 10.3104 25.1227C8.91368 24.5796 7.71758 23.626 6.8822 22.3902C6.04954 21.1583 5.61486 19.7044 5.63572 18.2217V13.7677C5.63085 12.7689 5.83072 11.7795 6.22327 10.8596C6.5953 9.9877 7.60963 9.57998 8.48882 9.94895ZM14.7286 14.0098C14.7286 13.063 13.9547 12.2955 13 12.2955C12.0453 12.2955 11.2714 13.063 11.2714 14.0098V17.7432C11.2714 18.69 12.0453 19.4575 13 19.4575C13.9547 19.4575 14.7286 18.69 14.7286 17.7432V14.0098Z" fill="#008BF5"/>
</svg>
