<svg width="22" height="24" viewBox="0 0 22 24" fill="none" xmlns="http://www.w3.org/2000/svg">
<path d="M21.5 21.75C21.5 22.1478 21.342 22.5294 21.0607 22.8107C20.7794 23.092 20.3978 23.25 20 23.25H2C1.60218 23.25 1.22064 23.092 0.93934 22.8107C0.65804 22.5294 0.5 22.1478 0.5 21.75V2.25002C0.5 1.85219 0.65804 1.47066 0.93934 1.18936C1.22064 0.908052 1.60218 0.750016 2 0.750016H17C17.1947 0.749101 17.3877 0.786611 17.5678 0.860398C17.748 0.934186 17.9119 1.0428 18.05 1.18002L21.05 4.06002C21.1928 4.19919 21.3062 4.3656 21.3835 4.54939C21.4608 4.73319 21.5004 4.93063 21.5 5.13002V21.75Z" stroke="#4C556A" stroke-linecap="round" stroke-linejoin="round"/>
<path d="M5.14994 4.55007C2.91994 6.00007 5.86994 9.73007 9.7999 12.2601C11.0399 13.0701 17.0799 17.0701 17.9599 14.3201C18.6999 12.0001 16.0499 11.4601 10.6699 13.1401C3.93994 15.2401 3.66994 19.4101 5.66994 19.8601C8.32994 20.4701 8.83994 14.5001 8.97994 13.3401C9.4199 9.12007 7.57994 3.00007 5.14994 4.55007Z" stroke="#4C556A" stroke-linecap="round" stroke-linejoin="round"/>
</svg>
