<svg width="32" height="34" viewBox="0 0 32 34" fill="none" xmlns="http://www.w3.org/2000/svg">
<path d="M30.8667 30.8667C30.8667 31.4324 30.642 31.9751 30.2419 32.3752C29.8418 32.7753 29.2991 33 28.7333 33H3.13333C2.56755 33 2.02491 32.7753 1.62484 32.3752C1.22477 31.9751 1 31.4324 1 30.8667V3.13336C1 2.56756 1.22477 2.02494 1.62484 1.62487C2.02491 1.22479 2.56755 1.00002 3.13333 1.00002H24.4667C24.7436 0.998722 25.0181 1.05207 25.2742 1.15701C25.5305 1.26195 25.7636 1.41643 25.96 1.61158L30.2267 5.70758C30.4298 5.90552 30.591 6.14219 30.701 6.40358C30.8109 6.66498 30.8672 6.94579 30.8667 7.22936V30.8667Z" fill="#0E6EB7"/>
<path d="M7.61325 6.40454C4.44169 8.46677 8.63725 13.7717 14.2265 17.3699C15.9901 18.5219 24.5803 24.2108 25.8319 20.2997C26.8843 17.0001 23.1154 16.2321 15.4639 18.6215C5.89236 21.6081 5.50836 27.5388 8.3528 28.1788C12.1359 29.0464 12.8612 20.5557 13.0604 18.9059C13.6861 12.9041 11.0692 4.2001 7.61325 6.40454Z" fill="#0E6EB7"/>
<path d="M30.8667 30.8667C30.8667 31.4324 30.642 31.9751 30.2419 32.3752C29.8418 32.7753 29.2991 33 28.7333 33H3.13333C2.56755 33 2.02491 32.7753 1.62484 32.3752C1.22477 31.9751 1 31.4324 1 30.8667V3.13336C1 2.56756 1.22477 2.02494 1.62484 1.62487C2.02491 1.22479 2.56755 1.00002 3.13333 1.00002H24.4667C24.7436 0.998722 25.0181 1.05207 25.2742 1.15701C25.5305 1.26195 25.7636 1.41643 25.96 1.61158L30.2267 5.70758C30.4298 5.90552 30.591 6.14219 30.701 6.40358C30.8109 6.66498 30.8672 6.94579 30.8667 7.22936V30.8667Z" stroke="white" stroke-width="0.5" stroke-linecap="round" stroke-linejoin="round"/>
<path d="M7.61325 6.40454C4.44169 8.46677 8.63725 13.7717 14.2265 17.3699C15.9901 18.5219 24.5803 24.2108 25.8319 20.2997C26.8843 17.0001 23.1154 16.2321 15.4639 18.6215C5.89236 21.6081 5.50836 27.5388 8.3528 28.1788C12.1359 29.0464 12.8612 20.5557 13.0604 18.9059C13.6861 12.9041 11.0692 4.2001 7.61325 6.40454Z" stroke="white" stroke-width="0.5" stroke-linecap="round" stroke-linejoin="round"/>
</svg>
