<svg width="16" height="16" viewBox="0 0 16 16" fill="none" xmlns="http://www.w3.org/2000/svg">
<path fill-rule="evenodd" clip-rule="evenodd" d="M1.85693 1.71429C1.85693 0.767512 2.62444 0 3.57122 0H5.28551C6.23228 0 6.99979 0.767512 6.99979 1.71429V3.42857C6.99979 4.37535 6.23228 5.14286 5.28551 5.14286C5.28551 5.82485 5.55642 6.47889 6.03866 6.96113C6.5209 7.44337 7.17494 7.71429 7.85693 7.71429H8.99979C8.99979 6.76751 9.7673 6 10.7141 6H12.4284C13.3751 6 14.1426 6.76751 14.1426 7.71429V9.42857C14.1426 10.3753 13.3751 11.1429 12.4284 11.1429H10.7141C9.7673 11.1429 8.99979 10.3753 8.99979 9.42857H7.85693C6.92429 9.42857 6.02299 9.12457 5.28551 8.57145V10.8571C6.23228 10.8571 6.99979 11.6247 6.99979 12.5714V14.2857C6.99979 15.2325 6.23228 16 5.28551 16H3.57122C2.62444 16 1.85693 15.2325 1.85693 14.2857V12.5714C1.85693 11.6247 2.62444 10.8571 3.57122 10.8571V5.14286C2.62444 5.14286 1.85693 4.37535 1.85693 3.42857V1.71429Z" fill="#D2ECFF"/>
</svg>
