<svg width="16" height="16" viewBox="0 0 16 16" fill="none" xmlns="http://www.w3.org/2000/svg">
<path fill-rule="evenodd" clip-rule="evenodd" d="M4.85714 1.14286V5.14286C4.85714 5.77403 5.36882 6.28571 6 6.28571H7.14286V7.71429H3.42857C2.324 7.71429 1.42857 8.60971 1.42857 9.71429V11.4286H1.14286C0.511674 11.4286 0 11.9402 0 12.5714V14.8571C0 15.4883 0.511674 16 1.14286 16H3.42857C4.05975 16 4.57143 15.4883 4.57143 14.8571V12.5714C4.57143 11.9402 4.05975 11.4286 3.42857 11.4286H3.14286V9.71429C3.14286 9.55649 3.27078 9.42857 3.42857 9.42857H7.14286V11.4286H6.85714C6.22597 11.4286 5.71429 11.9402 5.71429 12.5714V14.8571C5.71429 15.4883 6.22597 16 6.85714 16H9.14286C9.77403 16 10.2857 15.4883 10.2857 14.8571V12.5714C10.2857 11.9402 9.77403 11.4286 9.14286 11.4286H8.85714V9.42857H12.5714C12.7293 9.42857 12.8571 9.55649 12.8571 9.71429V11.4286H12.5714C11.9402 11.4286 11.4286 11.9402 11.4286 12.5714V14.8571C11.4286 15.4883 11.9402 16 12.5714 16H14.8571C15.4883 16 16 15.4883 16 14.8571V12.5714C16 11.9402 15.4883 11.4286 14.8571 11.4286H14.5714V9.71429C14.5714 8.60971 13.676 7.71429 12.5714 7.71429H8.85714V6.28571H10C10.6312 6.28571 11.1429 5.77403 11.1429 5.14286V1.14286C11.1429 0.511674 10.6312 0 10 0H6C5.36882 0 4.85714 0.511674 4.85714 1.14286Z" fill="#D2ECFF"/>
</svg>
