<svg width="16" height="16" viewBox="0 0 16 16" fill="none" xmlns="http://www.w3.org/2000/svg">
<path fill-rule="evenodd" clip-rule="evenodd" d="M6.35084 0.788571L5.8217 2.15429L3.99999 3.18743L2.54856 2.96571C2.3065 2.93268 2.06009 2.97242 1.8407 3.07988C1.6213 3.18734 1.43884 3.35765 1.31656 3.56914L0.825128 4.43086C0.698945 4.64544 0.640789 4.89323 0.658336 5.14155C0.675883 5.38986 0.768308 5.62701 0.923414 5.82171L1.8457 6.96571V9.03429L0.948557 10.1783C0.793451 10.373 0.701026 10.6101 0.683479 10.8585C0.665932 11.1068 0.724087 11.3546 0.850271 11.5691L1.3417 12.4309C1.46399 12.6423 1.64644 12.8127 1.86584 12.9201C2.08523 13.0276 2.33164 13.0673 2.5737 13.0343L4.02513 12.8126L5.82284 13.8457L6.35198 15.2126C6.44105 15.4436 6.5978 15.6424 6.80171 15.7829C7.00563 15.9234 7.24721 15.9991 7.49484 16H8.52913C8.77728 15.9995 9.01946 15.9238 9.22385 15.7831C9.42823 15.6424 9.58525 15.4431 9.67427 15.2114L10.2034 13.8457L12 12.8126L13.4514 13.0343C13.6935 13.0673 13.9399 13.0276 14.1593 12.9201C14.3787 12.8127 14.5611 12.6423 14.6834 12.4309L15.1748 11.5691C15.301 11.3546 15.3592 11.1068 15.3416 10.8585C15.3241 10.6101 15.2317 10.373 15.0766 10.1783L14.1543 9.03429V6.96571L15.0526 5.82171C15.2077 5.62701 15.3001 5.38986 15.3176 5.14155C15.3352 4.89323 15.277 4.64544 15.1508 4.43086L14.6594 3.56914C14.5372 3.35755 14.3548 3.18714 14.1354 3.07967C13.916 2.97219 13.6695 2.93252 13.4274 2.96571L11.976 3.18743L10.1783 2.15429L9.64913 0.787429C9.55986 0.556276 9.4029 0.357449 9.19879 0.216956C8.99468 0.0764637 8.75292 0.000847588 8.50513 0H7.49484C7.24692 0.000936937 7.00506 0.0767209 6.80093 0.217428C6.59681 0.358135 6.43993 0.557206 6.35084 0.788571ZM7.99998 10.5714C8.68197 10.5714 9.33602 10.3005 9.81826 9.81828C10.3005 9.33604 10.5714 8.68199 10.5714 8C10.5714 7.31801 10.3005 6.66396 9.81826 6.18173C9.33602 5.69949 8.68197 5.42857 7.99998 5.42857C7.318 5.42857 6.66395 5.69949 6.18171 6.18173C5.69947 6.66396 5.42856 7.31801 5.42856 8C5.42856 8.68199 5.69947 9.33604 6.18171 9.81828C6.66395 10.3005 7.318 10.5714 7.99998 10.5714Z" fill="#D2ECFF"/>
</svg>
