<svg width="16" height="16" viewBox="0 0 16 16" fill="none" xmlns="http://www.w3.org/2000/svg">
<g clip-path="url(#clip0_502_3088)">
<path fill-rule="evenodd" clip-rule="evenodd" d="M1.50286 0.502858C1.82404 0.181275 2.25978 0.00040103 2.71429 9.11419e-07H9.57143C9.64652 -0.0001332 9.7209 0.0145343 9.79032 0.0431648C9.85974 0.0717953 9.92283 0.113827 9.976 0.166858L14.5474 4.73829C14.6005 4.79145 14.6425 4.85455 14.6711 4.92397C14.6998 4.99339 14.7144 5.06777 14.7143 5.14286V14.2857C14.7143 14.5108 14.6699 14.7338 14.5838 14.9417C14.4976 15.1497 14.3714 15.3387 14.2122 15.4979C14.053 15.6571 13.864 15.7834 13.656 15.8695C13.448 15.9557 13.2251 16 13 16H2.71429C2.48916 16 2.26624 15.9557 2.05826 15.8695C1.85027 15.7834 1.66129 15.6571 1.5021 15.4979C1.34292 15.3387 1.21664 15.1497 1.13049 14.9417C1.04434 14.7338 1 14.5108 1 14.2857V1.71429C1 1.25943 1.18057 0.822858 1.50286 0.502858Z" fill="#D2ECFF"/>
<path fill-rule="evenodd" clip-rule="evenodd" d="M6.58865 2.1641C7.66877 1.87623 8.81045 1.9703 9.82176 2.42113C10.1462 2.56578 10.2914 2.94465 10.1459 3.26739C10.0005 3.59012 9.61963 3.73449 9.29517 3.58985C8.55282 3.25892 7.71473 3.18988 6.92189 3.40119C6.01141 3.64383 5.23513 4.2363 4.7638 5.04824C4.5929 5.34184 4.46606 5.65931 4.38794 5.98905C4.3064 6.33328 3.95973 6.54658 3.61366 6.46546C3.26758 6.38434 3.05315 6.03953 3.1347 5.6953C3.2417 5.24363 3.41488 4.80971 3.64894 4.40754C4.29102 3.3016 5.34845 2.49462 6.58865 2.1641ZM11.8018 4.04501C11.5972 3.75575 11.1957 3.68622 10.9048 3.8897C10.614 4.09318 10.5441 4.49263 10.7487 4.78188C11.1679 5.37474 11.3959 6.08465 11.3958 6.81606V9.13772C11.3958 9.60197 11.3039 10.0617 11.1253 10.4906C10.9466 10.9195 10.6849 11.3092 10.3549 11.6375C10.0248 11.9658 9.63301 12.2261 9.20181 12.4038C8.7706 12.5815 8.30844 12.673 7.8417 12.673C7.48615 12.673 7.19792 12.9597 7.19792 13.3133C7.19792 13.667 7.48615 13.9537 7.8417 13.9537C8.47752 13.9537 9.10712 13.8291 9.69454 13.587C10.282 13.3451 10.8157 12.9903 11.2653 12.5431C11.7149 12.0959 12.0715 11.565 12.3148 10.9807C12.5582 10.3964 12.6834 9.77017 12.6834 9.13772V6.81609C12.6835 5.81968 12.3729 4.85263 11.8018 4.04501ZM4.28757 7.74283C4.28757 7.38917 3.99934 7.10247 3.64379 7.10247C3.28823 7.10247 3 7.38917 3 7.74283V9.13748C2.99972 10.0855 3.28072 11.0125 3.80778 11.8022C4.21109 12.4066 4.74475 12.9101 5.36664 13.278C5.67223 13.4588 6.0673 13.359 6.24906 13.055C6.43081 12.7511 6.33043 12.3581 6.02485 12.1773C5.56832 11.9073 5.17659 11.5376 4.88054 11.094C4.4936 10.5142 4.28733 9.83363 4.28757 9.13769V7.74283ZM7.711 5.66384C7.86954 5.6506 8.02958 5.66312 8.18479 5.7013C8.39742 5.75359 8.59553 5.8527 8.76453 5.99129C8.93353 6.12989 9.0691 6.30445 9.16124 6.5021C9.25339 6.69976 9.29975 6.91546 9.29692 7.13331L9.29687 7.97671C9.29687 8.33038 9.5851 8.61707 9.94066 8.61707C10.2962 8.61707 10.5844 8.33038 10.5844 7.97671V7.14544C10.589 6.73743 10.5019 6.33354 10.3293 5.96334C10.1561 5.5918 9.9013 5.26367 9.58362 5.00313C9.26595 4.74261 8.89354 4.55632 8.49385 4.45802C8.2021 4.38626 7.90126 4.36272 7.60325 4.38761C7.24895 4.4172 6.98584 4.72689 7.01559 5.07931C7.04536 5.43173 7.35669 5.69344 7.711 5.66384ZM6.16156 5.71645C6.489 5.85429 6.64211 6.23005 6.50355 6.55575C6.42523 6.73984 6.38541 6.93786 6.38652 7.13776L6.38655 7.1413L6.38653 8.82176C6.3818 9.11661 6.46764 9.40586 6.63271 9.6508C6.79778 9.89575 7.03413 10.0847 7.31012 10.1924C7.58612 10.3 7.88859 10.3213 8.17705 10.2533C8.46552 10.1853 8.72623 10.0312 8.92427 9.81181C9.1618 9.54864 9.56883 9.52682 9.8334 9.76308C10.098 9.99934 10.1199 10.4042 9.88239 10.6673C9.50911 11.0809 9.01773 11.3713 8.47402 11.4995C7.9303 11.6276 7.3602 11.5876 6.84 11.3846C6.3198 11.1818 5.87433 10.8256 5.5632 10.3639C5.25308 9.90375 5.09119 9.36062 5.09896 8.80677V7.14296C5.09715 6.76984 5.17158 6.40025 5.31778 6.05662C5.45634 5.73093 5.83412 5.57862 6.16156 5.71645ZM8.48549 7.23338C8.48549 6.87971 8.19725 6.59302 7.8417 6.59302C7.48615 6.59302 7.19792 6.87971 7.19792 7.23338V8.62803C7.19792 8.98169 7.48615 9.26839 7.8417 9.26839C8.19725 9.26839 8.48549 8.98169 8.48549 8.62803V7.23338Z" fill="#1D212C"/>
</g>
<defs>
<clipPath id="clip0_502_3088">
<rect width="16" height="16" fill="white"/>
</clipPath>
</defs>
</svg>
