<svg width="16" height="16" viewBox="0 0 16 16" fill="none" xmlns="http://www.w3.org/2000/svg">
<path fill-rule="evenodd" clip-rule="evenodd" d="M1.50286 0.502858C1.82404 0.181275 2.25978 0.00040103 2.71429 9.11422e-07H9.57143C9.64652 -0.0001332 9.7209 0.0145343 9.79032 0.0431648C9.85974 0.0717953 9.92283 0.113827 9.976 0.166858L14.5474 4.73829C14.6005 4.79145 14.6425 4.85455 14.6711 4.92397C14.6998 4.99338 14.7144 5.06777 14.7143 5.14286V14.2857C14.7143 14.5108 14.6699 14.7338 14.5838 14.9417C14.4976 15.1497 14.3714 15.3387 14.2122 15.4979C14.053 15.6571 13.864 15.7834 13.656 15.8695C13.448 15.9557 13.2251 16 13 16H2.71429C2.48916 16 2.26624 15.9557 2.05826 15.8695C1.85027 15.7834 1.66129 15.6571 1.5021 15.4979C1.34292 15.3387 1.21664 15.1497 1.13049 14.9417C1.04434 14.7338 1 14.5108 1 14.2857V1.71429C1 1.25943 1.18057 0.822858 1.50286 0.502858ZM8.07086 3.92343L8.18971 4.04229C8.32229 4.12914 8.43657 4.24343 8.52343 4.376L10.6423 6.49486C10.7422 6.59475 10.8103 6.72204 10.8378 6.86061C10.8654 6.99919 10.8513 7.14283 10.7972 7.27336C10.7431 7.4039 10.6515 7.51546 10.534 7.59395C10.4166 7.67243 10.2784 7.71431 10.1371 7.71429H8.70857V11.8571C8.70857 12.1602 8.58816 12.4509 8.37384 12.6653C8.15951 12.8796 7.86882 13 7.56571 13C7.26261 13 6.97192 12.8796 6.75759 12.6653C6.54326 12.4509 6.42286 12.1602 6.42286 11.8571V7.71429H4.99429C4.85299 7.71431 4.71487 7.67243 4.59738 7.59395C4.47989 7.51546 4.38832 7.4039 4.33425 7.27336C4.28017 7.14283 4.26603 6.99919 4.2936 6.86061C4.32117 6.72204 4.38922 6.59475 4.48914 6.49486L6.608 4.37714C6.69486 4.24457 6.80914 4.13029 6.94171 4.04343L7.06057 3.92457C7.1269 3.85822 7.20565 3.80559 7.29232 3.76969C7.379 3.73378 7.4719 3.7153 7.56571 3.7153C7.65953 3.7153 7.75243 3.73378 7.8391 3.76969C7.92578 3.80559 8.00453 3.85822 8.07086 3.92457V3.92343Z" fill="#D2ECFF"/>
</svg>
