<svg width="16" height="16" viewBox="0 0 16 16" fill="none" xmlns="http://www.w3.org/2000/svg">
<path fill-rule="evenodd" clip-rule="evenodd" d="M5.85714 0C5.22597 0 4.71429 0.511675 4.71429 1.14286V1.71429C4.71429 2.34547 5.22597 2.85714 5.85714 2.85714H9.28571C9.9169 2.85714 10.4286 2.34547 10.4286 1.71429V1.14286C10.4286 0.511674 9.9169 0 9.28571 0H5.85714ZM3.28568 1.14286H2.71429C1.76751 1.14286 1 1.91037 1 2.85714V14.2857C1 15.2325 1.76751 16 2.71429 16H12.4286C13.3753 16 14.1429 15.2325 14.1429 14.2857V2.85714C14.1429 1.91037 13.3753 1.14286 12.4286 1.14286H11.8571V1.71429C11.8571 3.13445 10.7058 4.28571 9.28568 4.28571H5.85711C4.43695 4.28571 3.28568 3.13445 3.28568 1.71429V1.14286ZM10.9429 6.74286C11.3216 7.02689 11.3983 7.56415 11.1143 7.94286L7.68571 12.5143C7.41277 12.8782 6.90305 12.9655 6.52454 12.7131L4.81025 11.5703C4.41638 11.3077 4.30994 10.7756 4.57253 10.3817C4.83512 9.98781 5.36729 9.88137 5.76118 10.144L6.80079 10.837L9.74286 6.91429C10.0269 6.53558 10.5641 6.45882 10.9429 6.74286Z" fill="#D2ECFF"/>
</svg>
