<svg width="12" height="13" viewBox="0 0 12 13" fill="none" xmlns="http://www.w3.org/2000/svg">
<path fill-rule="evenodd" clip-rule="evenodd" d="M6 12.5C9.31371 12.5 12 9.81371 12 6.5C12 3.18629 9.31371 0.5 6 0.5C2.68629 0.5 0 3.18629 0 6.5C0 9.81371 2.68629 12.5 6 12.5ZM6.53571 4.35714C6.53571 4.06127 6.29587 3.82143 6 3.82143C5.70413 3.82143 5.46429 4.06127 5.46429 4.35714V6.5C5.46429 6.62532 5.50822 6.74668 5.58845 6.84296L7.73131 9.41437C7.92072 9.64169 8.25852 9.67237 8.48582 9.48294C8.71311 9.2936 8.7438 8.95577 8.55441 8.72847L6.53571 6.30605V4.35714Z" fill="#006D4D"/>
</svg>
